<svg xmlns="http://www.w3.org/2000/svg" id="구성_요소_1_1" width="130.093" height="48.03" viewBox="0 0 130.093 48.03">
    <defs>
        <style>
            .cls-1{fill:#4f76ff}.cls-2{fill:#9b9b9b}
        </style>
    </defs>
    <path id="패스_1" d="M0 63.21h2.431a3 3 0 1 1 0 5.979H0zm2.4 5.434a2.445 2.445 0 1 0 0-4.882H.664v4.882z" class="cls-1" transform="translate(0 -21.221)"/>
    <path id="패스_2" d="M11.27 63.21h.664v5.979h-.664z" class="cls-1" transform="translate(-3.784 -21.221)"/>
    <path id="패스_3" d="M19.7 66.174h.578v2.278a3.321 3.321 0 0 1-2.192.764 3.042 3.042 0 1 1 0-6.078 2.916 2.916 0 0 1 2.223.862l-.392.4a2.418 2.418 0 0 0-1.767-.691 2.478 2.478 0 1 0 0 4.949 2.584 2.584 0 0 0 1.561-.458z" class="cls-1" transform="translate(-5.004 -21.195)"/>
    <path id="패스_4" d="M26.38 63.21h.631v5.979h-.631z" class="cls-1" transform="translate(-8.856 -21.221)"/>
    <path id="패스_5" d="M31.589 63.721h-2.1v-.551h4.836v.551h-2.1v5.427h-.664z" class="cls-1" transform="translate(-9.9 -21.207)"/>
    <path id="패스_6" d="M41.736 67.594h-3.321l-.751 1.594H37l2.737-5.979h.618l2.737 5.979h-.664zm-.233-.538l-1.435-3.208-1.435 3.208z" class="cls-1" transform="translate(-12.422 -21.221)"/>
    <path id="패스_7" d="M48.333 63.21h.631v5.434h3.321v.545H48.3z" class="cls-1" transform="translate(-16.215 -21.221)"/>
    <path id="패스_8" d="M60.083 63.21h.631v5.434h3.321v.545H60.05z" class="cls-1" transform="translate(-20.16 -21.221)"/>
    <path id="패스_9" d="M71.623 67.594H68.3l-.717 1.594h-.663l2.737-5.979h.638l2.737 5.979h-.664zm-.239-.538l-1.435-3.208-1.435 3.208z" class="cls-1" transform="translate(-22.466 -21.221)"/>
    <path id="패스_10" d="M83.205 67.594c0 1.016-.757 1.594-2.252 1.594H78.21V63.21h2.577c1.329 0 2.1.565 2.1 1.541a1.375 1.375 0 0 1-.917 1.329 1.435 1.435 0 0 1 1.236 1.515zm-4.364-3.859V65.9h1.887c.957 0 1.515-.365 1.515-1.083s-.545-1.083-1.515-1.083zm3.727 3.806c0-.777-.571-1.116-1.621-1.116h-2.106v2.245h2.106c1.053 0 1.621-.345 1.621-1.129z" class="cls-1" transform="translate(-26.256 -21.221)"/>
    <path id="패스_11" d="M91.77 66.174a3 3 0 0 1 3.13-3.035 2.883 2.883 0 0 1 2.185.87l-.4.4a2.372 2.372 0 0 0-1.767-.7 2.478 2.478 0 1 0 0 4.949 2.338 2.338 0 0 0 1.767-.717l.4.4a2.9 2.9 0 0 1-2.192.883 3 3 0 0 1-3.122-3.049z" class="cls-2" transform="translate(-30.808 -21.196)"/>
    <path id="패스_12" d="M101.459 66.072a3.142 3.142 0 1 1 3.142 3.042 3.009 3.009 0 0 1-3.142-3.042zm5.646 0a2.511 2.511 0 1 0-2.5 2.478 2.425 2.425 0 0 0 2.531-2.478z" class="cls-2" transform="translate(-34.061 -21.093)"/>
    <path id="패스_13" d="M117.762 69.175l-1.368-1.92h-2.079v1.893h-.664V63.17h2.239c1.521 0 2.445.771 2.445 2.053a1.86 1.86 0 0 1-1.368 1.88l1.461 2.046zm0-3.926c0-.957-.664-1.5-1.827-1.5h-1.588v3h1.528c1.216 0 1.853-.558 1.853-1.495z" class="cls-2" transform="translate(-38.154 -21.207)"/>
    <path id="패스_14" d="M128.3 65.263c0 1.269-.923 2.039-2.445 2.039h-1.6v1.887h-.664V63.21h2.265c1.52 0 2.444.771 2.444 2.053zm-.664 0c0-.957-.631-1.5-1.827-1.5h-1.588v2.989h1.634c1.182 0 1.813-.551 1.813-1.488z" class="cls-2" transform="translate(-41.491 -21.221)"/>
    <path id="패스_15" d="M132.719 66.078a3.135 3.135 0 1 1 3.142 3.042 3 3 0 0 1-3.142-3.042zm5.64 0a2.511 2.511 0 1 0-2.5 2.478 2.418 2.418 0 0 0 2.5-2.478z" class="cls-2" transform="translate(-44.556 -21.1)"/>
    <path id="패스_16" d="M149.012 69.175l-1.388-1.92h-2.059v1.893h-.665V63.17h2.239c1.515 0 2.438.771 2.438 2.053a1.86 1.86 0 0 1-1.362 1.88l1.455 2.046zm-.06-3.926c0-.957-.631-1.5-1.827-1.5h-1.561v3h1.588c1.196-.005 1.8-.563 1.8-1.5z" class="cls-2" transform="translate(-48.645 -21.207)"/>
    <path id="패스_17" d="M158.153 67.594h-3.321l-.717 1.594h-.664l2.73-5.979h.624l2.73 5.979h-.664zm-.226-.511l-1.455-3.208-1.415 3.182z" class="cls-2" transform="translate(-51.516 -21.221)"/>
    <path id="패스_18" d="M165 63.721h-2.11v-.551h4.836v.551h-2.106v5.427h-.631z" class="cls-2" transform="translate(-54.685 -21.207)"/>
    <path id="패스_19" d="M172.33 63.21h.664v5.979h-.664z" class="cls-2" transform="translate(-57.854 -21.221)"/>
    <path id="패스_20" d="M176.059 66.072a3.142 3.142 0 1 1 3.142 3.042 3.009 3.009 0 0 1-3.142-3.042zm5.646 0a2.511 2.511 0 1 0-2.5 2.478 2.425 2.425 0 0 0 2.5-2.478z" class="cls-2" transform="translate(-59.105 -21.093)"/>
    <path id="패스_21" d="M193.279 63.21v5.979h-.538l-3.84-4.849v4.849h-.631V63.21h.518l3.853 4.856V63.21z" class="cls-2" transform="translate(-63.205 -21.221)"/>
    <path id="패스_22" d="M25.89 36.17h9.074V0L25.89 5.314z" class="cls-1" transform="translate(-8.692)"/>
    <path id="패스_23" d="M68.666 13.839A10.9 10.9 0 0 0 63.571 15a12.548 12.548 0 0 0-4.085 3.554v-4.476l-8.636 5.315v21.423h9.041V23.8a6.935 6.935 0 0 1 2.478-1.428 8.815 8.815 0 0 1 2.949-.538q4.424 0 4.417 5.075v13.9h9.075V25.537q0-5.607-2.657-8.636a9.524 9.524 0 0 0-7.487-3.062z" class="cls-1" transform="translate(-17.071 -4.645)"/>
    <path id="패스_24" d="M145.48 40.937h9.074V14.2l-9.074 5.367z" class="cls-1" transform="translate(-48.84 -4.767)"/>
    <path id="패스_25" d="M182.853 14.2q-4.776 0-8.118 4.77V14.2l-8.635 5.314v21.423h9.074v-16a10.051 10.051 0 0 1 6.5-2.385 8.822 8.822 0 0 1 4.178.89v-8.711a8.709 8.709 0 0 0-3-.531z" class="cls-1" transform="translate(-55.763 -4.767)"/>
    <path id="패스_26" d="M110.9 13.944a13.545 13.545 0 1 0 11.3 3.856 13.5 13.5 0 0 0-11.3-3.855zm.352 19.41a3.132 3.132 0 1 0 0-.027z" class="cls-1" transform="translate(-33.291 -4.644)"/>
    <path id="패스_27" d="M0 40.937h9.074V14.2L0 19.567z" class="cls-1" transform="translate(0 -4.767)"/>
    <path id="패스_28" d="M.05 10.157l9.074-5.308L.05 0z" class="cls-1" transform="translate(-.017)"/>
</svg>
